<?xml version="1.0" encoding="UTF-8"?>
<svg version="1.1" xmlns="http://www.w3.org/2000/svg" width="106" height="41">
<path d="M0 0 C4.40608743 2.16298837 7.1987497 4.39680479 9 9 C9.68426057 14.04325384 9.5739862 17.83076884 7.3125 22.4375 C4.28115306 25.79656012 2.25860352 27.69355631 -2.33203125 28.31640625 C-8.04951809 28.58213652 -11.60250453 27.96847152 -16 24 C-19.38570467 20.16286804 -19.51291172 16.36598538 -19.3515625 11.4375 C-18.67904883 6.77473854 -16.30117669 4.14809708 -12.875 1.125 C-8.55651358 -0.56484251 -4.5732948 -0.65960983 0 0 Z " fill="#17AB5D" transform="translate(24,4)"/>
<path d="M0 0 C1.65 0 3.3 0 5 0 C5.33 1.98 5.66 3.96 6 6 C6.99 5.34 7.98 4.68 9 4 C12.35316337 3.73597139 15.63058658 3.91248277 19 4 C19 7.96 19 11.92 19 16 C10.6015625 16.1953125 10.6015625 16.1953125 8 16 C7.34 15.34 6.68 14.68 6 14 C5.67 14.66 5.34 15.32 5 16 C0.33333333 16 -4.33333333 16 -9 16 C-9 17.65 -9 19.3 -9 21 C-10.65 21 -12.3 21 -14 21 C-14 15.72 -14 10.44 -14 5 C-4.71428571 3.14285714 -4.71428571 3.14285714 -1 5 C-0.67 3.35 -0.34 1.7 0 0 Z M-8 8 C-8 9.32 -8 10.64 -8 12 C-6.68 11.67 -5.36 11.34 -4 11 C-4.33 10.01 -4.66 9.02 -5 8 C-5.99 8 -6.98 8 -8 8 Z M11 8 C11 9.32 11 10.64 11 12 C11.99 12 12.98 12 14 12 C13.67 10.68 13.34 9.36 13 8 C12.34 8 11.68 8 11 8 Z " fill="#000000" transform="translate(53,9)"/>
<path d="M0 0 C1.65 0 3.3 0 5 0 C5 0.66 5 1.32 5 2 C5.66 2 6.32 2 7 2 C7 3.32 7 4.64 7 6 C6.34 6 5.68 6 5 6 C5 7.65 5 9.3 5 11 C5.66 11 6.32 11 7 11 C7 12.32 7 13.64 7 15 C3.28400809 15.20086443 2.22791555 15.1519437 -1 13 C-1.66 13.66 -2.32 14.32 -3 15 C-4.875 15.265625 -4.875 15.265625 -7 15.25 C-7.70125 15.25515625 -8.4025 15.2603125 -9.125 15.265625 C-11 15 -11 15 -13 13 C-13.33 13.66 -13.66 14.32 -14 15 C-15.32 15 -16.64 15 -18 15 C-18.33 12.36 -18.66 9.72 -19 7 C-19.99 7.495 -19.99 7.495 -21 8 C-21.40729228 10.32156597 -21.74438677 12.6568787 -22 15 C-23.32 15 -24.64 15 -26 15 C-26 11.04 -26 7.08 -26 3 C-16.375 2.75 -16.375 2.75 -13 5 C-12.01 4.34 -11.02 3.68 -10 3 C-4.65454545 2.67272727 -4.65454545 2.67272727 -2 4 C-1.34 2.68 -0.68 1.36 0 0 Z M-9 10 C-8.67 10.66 -8.34 11.32 -8 12 C-5.36 11.67 -2.72 11.34 0 11 C0 10.67 0 10.34 0 10 C-2.97 10 -5.94 10 -9 10 Z " fill="#000000" transform="translate(99,10)"/>
<path d="M0 0 C4.58944252 2.59067597 8.07973488 5.95843049 9.58984375 11.1171875 C10.43895989 16.98821911 10.4991943 22.35248537 7.52734375 27.6171875 C4.02449419 32.28765359 0.50237103 34.69595422 -5.24609375 35.52734375 C-11.27485226 35.82346665 -15.88471772 35.3237664 -20.78515625 31.6484375 C-25.50423874 27.20160977 -26.66198643 23.50460631 -26.97265625 17.1796875 C-26.75311095 11.33246435 -25.4377323 7.39134984 -21.41015625 3.1171875 C-15.27205905 -1.89350409 -7.4975257 -2.74625739 0 0 Z M-19.21484375 5.6328125 C-22.87271843 9.51821048 -24.41015625 12.64264311 -24.41015625 18.1171875 C-23.6593126 24.12393672 -21.12731672 27.06845913 -16.5546875 30.7265625 C-13.38889137 32.77942848 -11.17635609 33.25169464 -7.41015625 33.1171875 C-1.80819207 31.87230657 1.89153483 29.59998619 5.58984375 25.1171875 C7.0400093 20.76669085 7.10054482 16.66384565 6.58984375 12.1171875 C4.40003226 7.73756451 1.74006441 4.72314001 -2.41015625 2.1171875 C-8.81367488 0.30487091 -14.13383719 1.36564681 -19.21484375 5.6328125 Z " fill="#0FA857" transform="translate(27.41015625,0.8828125)"/>
<path d="M0 0 C0.66 0.33 1.32 0.66 2 1 C3.81384882 1 5.62786269 0.99421353 7.44140625 0.9609375 C11.66317031 1.02539191 15.85057246 1.52908948 20.046875 1.9765625 C23.06248575 2.00049592 24.49021027 1.59603133 27 0 C27 0.66 27 1.32 27 2 C28.98 2 30.96 2 33 2 C32.01 4.31 31.02 6.62 30 9 C27.14106936 7.57053468 26.90837299 6.86255948 25 4 C24.67 4.99 24.34 5.98 24 7 C20.93926204 8.25150174 18.34722982 7.94167636 15.125 7.5 C11.15525066 7.03365646 7.94104321 7.26678266 4 8 C1.125 7.5625 1.125 7.5625 -1 7 C-1.04254356 5.00045254 -1.04080783 2.99958364 -1 1 C-0.67 0.67 -0.34 0.34 0 0 Z M4 3 C4 6 4 6 4 6 Z " fill="#000000" transform="translate(52,32)"/>
<path d="M0 0 C2.24973447 -0.054138 4.49984383 -0.09285491 6.75 -0.125 C8.00296875 -0.14820312 9.2559375 -0.17140625 10.546875 -0.1953125 C13.72820492 -0.01537302 15.36521896 0.31001418 18 2 C18 1.34 18 0.68 18 0 C18.66 0 19.32 0 20 0 C20 2.31 20 4.62 20 7 C18.68 7 17.36 7 16 7 C16 6.01 16 5.02 16 4 C15.34 4 14.68 4 14 4 C14 4.99 14 5.98 14 7 C13.34 7 12.68 7 12 7 C12 6.34 12 5.68 12 5 C11.01 5 10.02 5 9 5 C9 5.66 9 6.32 9 7 C6.03 7 3.06 7 0 7 C0 4.69 0 2.38 0 0 Z M3 2 C3 2.99 3 3.98 3 5 C3.66 5 4.32 5 5 5 C4.67 4.01 4.34 3.02 4 2 C3.67 2 3.34 2 3 2 Z " fill="#0FA858" transform="translate(86,32)"/>
<path d="M0 0 C0 3.3 0 6.6 0 10 C-7.38804781 10.36334661 -7.38804781 10.36334661 -10 8.8125 C-11.36703913 6.33474158 -11.41826612 4.78844081 -11 2 C-8.58126009 -2.53513734 -4.29795114 -0.77504037 0 0 Z " fill="#CFEDDD" transform="translate(21,15)"/>
<path d="M0 0 C1.32 0 2.64 0 4 0 C4 3.3 4 6.6 4 10 C2.68 10 1.36 10 0 10 C0 6.7 0 3.4 0 0 Z " fill="#D9F1E4" transform="translate(22,15)"/>
</svg>
